<svg fill="none" height="512" viewBox="0 0 32 32" width="512" xmlns="http://www.w3.org/2000/svg">
    <g fill="#FFFFFF">
        <path d="m9 20c0-.5523.44771-1 1-1h12c.5523 0 1 .4477 1 1s-.4477 1-1 1h-12c-.55229 0-1-.4477-1-1z"/>
        <path d="m8 13c.55229 0 1-.4477 1-1s-.44771-1-1-1c-.55228 0-1 .4477-1 1s.44772 1 1 1z"/>
        <path d="m13 12c0 .5523-.4477 1-1 1s-1-.4477-1-1 .4477-1 1-1 1 .4477 1 1z"/>
        <path d="m10 16c.5523 0 1-.4477 1-1s-.4477-1-1-1c-.55229 0-1 .4477-1 1s.44771 1 1 1z"/>
        <path d="m17 12c0 .5523-.4477 1-1 1s-1-.4477-1-1 .4477-1 1-1 1 .4477 1 1z"/>
        <path d="m14 16c.5523 0 1-.4477 1-1s-.4477-1-1-1-1 .4477-1 1 .4477 1 1 1z"/>
        <path d="m21 12c0 .5523-.4477 1-1 1s-1-.4477-1-1 .4477-1 1-1 1 .4477 1 1z"/>
        <path d="m18 16c.5523 0 1-.4477 1-1s-.4477-1-1-1-1 .4477-1 1 .4477 1 1 1z"/>
        <path d="m25 12c0 .5523-.4477 1-1 1s-1-.4477-1-1 .4477-1 1-1 1 .4477 1 1z"/>
        <path d="m22 16c.5523 0 1-.4477 1-1s-.4477-1-1-1-1 .4477-1 1 .4477 1 1 1z"/>
        <path clip-rule="evenodd" d="m3 10c0-1.65685 1.34315-3 3-3h20c1.6569 0 3 1.34315 3 3v12c0 1.6569-1.3431 3-3 3h-20c-1.65686 0-3-1.3431-3-3zm3-1c-.55228 0-1 .44772-1 1v12c0 .5523.44772 1 1 1h20c.5523 0 1-.4477 1-1v-12c0-.55229-.4477-1-1-1z" fill-rule="evenodd"/>
    </g>
</svg>
