<svg xmlns="http://www.w3.org/2000/svg" xmlns:xlink="http://www.w3.org/1999/xlink" width="100%" height="100%" x="0%" y="0%" enable-background="new 0 0 24 24" version="1.1" viewBox="0 0 24 24" xml:space="preserve"><path fill="#FFF" fill-opacity="1" fill-rule="nonzero" stroke="#000" stroke-linecap="square" stroke-linejoin="miter" stroke-opacity="0" stroke-width=".24" d="M8.89,8.71C9.62,8.71,10.21,9.43,10.21,10.31C10.21,11.19,9.62,11.90,8.89,11.90C8.16,11.90,7.57,11.19,7.57,10.31C7.57,9.43,8.16,8.71,8.89,8.71z"/><path fill="#FFF" fill-opacity="1" fill-rule="nonzero" stroke="#000" stroke-linecap="square" stroke-linejoin="miter" stroke-opacity="0" stroke-width=".24" d="M15.33,8.71C16.06,8.71,16.65,9.43,16.65,10.31C16.65,11.19,16.06,11.90,15.33,11.90C14.60,11.90,14.01,11.19,14.01,10.31C14.01,9.43,14.60,8.71,15.33,8.71z"/><path fill="#FFF" fill-opacity="0" fill-rule="nonzero" stroke="#FFF" stroke-linecap="square" stroke-linejoin="miter" stroke-opacity="1" stroke-width="1.776" d="M9.73,21.09C6.57,20.95,3.16,19.75,2.87,15.20L3.01,9.55C3.01,4.82,5.02,2.96,8.85,2.96L15.14,3.00C19.14,3.00,21.14,4.93,21.14,9.65C21.25,15.93,18.32,21.56,9.73,21.09z"/><path fill="#FFF" fill-opacity="1" fill-rule="nonzero" stroke="#FFF" stroke-linecap="square" stroke-linejoin="miter" stroke-opacity="1" stroke-width=".229" d="M13.01,20.64L15.01,20.48L15.05,17.16C15.20,15.78,17.16,13.98,19.78,14.71L20.37,13.14C19.56,13.14,16.79,12.60,15.37,13.91C13.07,16.31,11.07,16.13,8.75,13.83A0.76 0.76 314.51 1 0 7.68,14.92C9.04,16.77,12.31,17.60,13.48,16.84L13.48,20.48"/></svg>